<?xml version="1.0" standalone="no"?>
<!DOCTYPE svg PUBLIC "-//W3C//DTD SVG 20010904//EN"
 "http://www.w3.org/TR/2001/REC-SVG-20010904/DTD/svg10.dtd">
<svg version="1.0" xmlns="http://www.w3.org/2000/svg"
 width="512.000000pt" height="512.000000pt" viewBox="0 0 512.000000 512.000000"
 preserveAspectRatio="xMidYMid meet">

<g transform="translate(0.000000,512.000000) scale(0.100000,-0.100000)"
fill="#000000" stroke="none">
<path d="M726 5043 c-44 -43 -98 -93 -118 -112 l-38 -35 -122 54 c-144 62
-211 73 -284 45 -58 -22 -109 -66 -137 -119 l-22 -41 -3 -1521 c-2 -1442 -1
-1521 15 -1536 10 -9 218 -103 463 -211 245 -107 478 -209 517 -227 l73 -33 0
-73 c0 -72 -1 -74 -25 -74 l-25 0 0 -563 c0 -548 1 -564 20 -582 10 -9 27 -15
37 -13 10 3 348 150 751 328 l733 322 182 -80 c1003 -442 1301 -572 1311 -572
7 0 20 8 29 18 15 17 17 81 19 666 l3 647 490 216 c270 118 498 222 508 231
16 15 17 94 15 1536 l-3 1521 -22 41 c-45 85 -127 134 -224 134 -48 0 -79 -9
-189 -57 l-131 -57 -37 35 c-20 19 -74 69 -118 112 -45 42 -88 77 -95 77 -7 0
-101 -23 -208 -51 -601 -155 -988 -294 -1155 -413 -123 -88 -244 -245 -332
-431 l-46 -97 -33 76 c-77 177 -205 349 -328 442 -147 111 -457 230 -941 364
-173 47 -421 110 -437 110 -6 0 -48 -35 -93 -77z m3778 -243 l215 -205 1
-1043 c0 -574 -4 -1042 -8 -1040 -5 2 -36 23 -70 48 l-61 45 -1 928 0 927 -50
0 -50 0 0 -886 c0 -487 -4 -884 -8 -882 -5 2 -36 23 -70 48 l-61 45 -1 1043 0
1042 -50 0 -50 0 -2 -1037 -3 -1037 -75 -18 c-477 -117 -911 -261 -1124 -371
-142 -73 -287 -243 -376 -439 -19 -43 -38 -77 -43 -78 -4 0 -6 474 -5 1053 l3
1052 46 110 c109 264 251 438 431 531 124 63 372 153 659 238 177 53 495 135
516 133 13 -1 107 -83 237 -207z m-3428 155 c556 -145 931 -284 1077 -400 117
-93 260 -315 331 -513 l26 -73 0 -1040 c0 -571 -3 -1039 -7 -1039 -5 1 -26 39
-47 85 -95 205 -229 359 -381 437 -222 114 -583 233 -1157 379 l-38 10 0 1099
c0 847 3 1100 12 1100 7 0 89 -20 184 -45z m-296 -1087 l-1 -1083 -61 -45
c-34 -25 -65 -47 -70 -48 -4 -2 -8 395 -8 882 l0 886 -50 0 -50 0 0 -924 0
-925 -57 -44 c-32 -24 -64 -47 -70 -51 -10 -6 -13 204 -13 1036 l1 1043 186
178 c102 97 188 177 190 177 1 0 3 -487 3 -1082z m203 -1199 c478 -120 951
-282 1097 -374 108 -68 228 -226 304 -402 l19 -42 -47 -52 c-43 -48 -76 -122
-76 -172 0 -11 -5 -17 -12 -14 -7 3 -411 181 -898 396 -487 215 -893 395 -904
399 -15 7 -7 16 54 61 41 29 80 51 89 48 9 -2 322 -127 696 -277 374 -150 689
-275 701 -277 16 -4 24 4 37 39 10 23 14 44 10 46 -5 1 -313 126 -686 276
l-678 273 68 51 c37 28 76 51 86 52 10 0 73 -14 140 -31z m3377 -21 c56 -42
66 -54 53 -59 -198 -75 -1335 -535 -1353 -548 -25 -18 -25 -21 -30 -185 l-5
-167 -89 -40 c-48 -21 -89 -39 -91 -39 -1 0 -5 20 -8 45 -8 58 -38 115 -83
160 l-36 36 22 52 c58 135 165 287 249 354 96 75 293 159 590 252 252 79 651
188 694 190 9 1 49 -23 87 -51z m241 -180 l70 -53 -28 -12 c-15 -6 -284 -125
-598 -263 -313 -139 -580 -256 -592 -261 -23 -8 -23 -8 -23 99 l0 108 538 216
c295 119 543 217 550 217 7 1 44 -23 83 -51z m-1281 -653 l0 -216 -39 32 c-53
42 -79 35 -115 -31 -15 -27 -29 -50 -32 -50 -2 0 -4 92 -4 204 l0 204 83 35
c45 20 88 36 95 36 9 1 12 -48 12 -214z"/>
<path d="M3500 4459 c-250 -87 -459 -160 -465 -162 -10 -4 10 -83 24 -91 7 -5
928 308 939 318 7 7 -23 90 -34 92 -5 1 -214 -70 -464 -157z"/>
<path d="M3490 3970 c-250 -86 -455 -161 -457 -167 -7 -19 25 -88 38 -85 19 4
923 314 928 318 8 7 -27 89 -40 90 -8 1 -219 -69 -469 -156z"/>
<path d="M3500 3486 c-256 -88 -467 -161 -469 -162 -8 -7 22 -94 33 -94 6 0
218 72 471 159 504 174 474 159 443 228 l-13 29 -465 -160z"/>
<path d="M3500 2999 c-250 -87 -459 -159 -465 -162 -10 -4 10 -83 23 -91 8 -4
930 308 940 318 7 7 -23 90 -34 92 -5 1 -214 -70 -464 -157z"/>
<path d="M1140 4595 c-14 -38 -23 -75 -17 -75 2 0 209 -70 458 -156 250 -86
460 -157 468 -158 13 -1 48 80 38 90 -4 4 -927 324 -934 324 -2 0 -8 -11 -13
-25z"/>
<path d="M1140 4105 c-28 -74 -68 -54 442 -229 255 -87 467 -159 472 -160 13
-2 40 84 30 93 -9 8 -914 321 -928 321 -3 0 -11 -11 -16 -25z"/>
<path d="M1139 3622 c-6 -15 -11 -38 -12 -51 -2 -22 22 -31 458 -182 253 -87
465 -158 471 -158 11 -1 41 86 33 93 -2 2 -188 67 -414 144 -225 78 -436 150
-468 161 l-58 20 -10 -27z"/>
<path d="M1140 3136 c-5 -15 -12 -37 -16 -50 -6 -25 -72 0 655 -250 151 -52
278 -93 283 -90 10 6 33 83 26 89 -3 3 -208 75 -457 160 -248 86 -458 158
-466 161 -10 4 -18 -3 -25 -20z"/>
</g>
</svg>
